<?xml version="1.0" encoding="UTF-8" standalone="no"?>
<svg
   xmlns:dc="http://purl.org/dc/elements/1.1/"
   xmlns:cc="http://creativecommons.org/ns#"
   xmlns:rdf="http://www.w3.org/1999/02/22-rdf-syntax-ns#"
   xmlns:svg="http://www.w3.org/2000/svg"
   xmlns="http://www.w3.org/2000/svg"
   xmlns:sodipodi="http://sodipodi.sourceforge.net/DTD/sodipodi-0.dtd"
   xmlns:inkscape="http://www.inkscape.org/namespaces/inkscape"
   inkscape:version="1.0beta2 (6318c8c, 2019-12-15)"
   sodipodi:docname="OBIS_logo_namechange.svg"
   viewBox="0 0 287.55733 165.4718"
   height="43.781082mm"
   width="76.082878mm"
   xml:space="preserve"
   id="svg833"
   version="1.1"><metadata
     id="metadata839"><rdf:RDF><cc:Work
         rdf:about=""><dc:format>image/svg+xml</dc:format><dc:type
           rdf:resource="http://purl.org/dc/dcmitype/StillImage" /><dc:title></dc:title></cc:Work></rdf:RDF></metadata><defs
     id="defs837" /><sodipodi:namedview
     inkscape:current-layer="g841"
     inkscape:window-maximized="0"
     inkscape:window-y="23"
     inkscape:window-x="0"
     inkscape:cy="75.634741"
     inkscape:cx="127.52109"
     inkscape:zoom="2"
     fit-margin-bottom="0"
     fit-margin-right="0"
     fit-margin-left="0"
     fit-margin-top="0"
     units="mm"
     showgrid="false"
     id="namedview835"
     inkscape:window-height="1343"
     inkscape:window-width="2560"
     inkscape:pageshadow="2"
     inkscape:pageopacity="0"
     guidetolerance="10"
     gridtolerance="10"
     objecttolerance="10"
     borderopacity="1"
     inkscape:document-rotation="0"
     bordercolor="#666666"
     pagecolor="#ffffff" /><g
     style="display:inline"
     transform="matrix(1.3333333,0,0,-1.3333333,0,163.71866)"
     inkscape:label="original"
     inkscape:groupmode="layer"
     id="g841"><path
       d="M 92.6984,121.771 H 91.4742 V 42.5039 h 20.8878 c 7.142,0 13.06,0.9852 18.722,5.793 4.949,4.2109 7.564,10.0293 7.564,16.8261 0,9.2969 -5.628,16.9118 -14.218,19.7836 4.828,3.5739 7.188,8.5911 7.188,15.2634 0,7.213 -2.301,12.871 -6.839,16.818 -4.964,4.412 -10.97,4.783 -16.697,4.783 z m 13.3466,-7.033 c 4.383,0 8.916,0 12.489,-2.256 3.652,-2.294 5.746,-6.521 5.746,-11.599 0,-5.3889 -1.506,-8.6725 -5.198,-11.3342 -3.697,-2.6656 -7.257,-2.6476 -11.768,-2.6254 l -1.269,0.0039 c 0,0 -5.442,0 -7.2325,0 0,2.159 0,25.6517 0,27.8107 1.7905,0 7.2325,0 7.2325,0 z m 2.343,-34.8435 c 5.575,0 11.378,-0.1789 15.651,-2.316 4.42,-2.1664 7.27,-7.1344 7.27,-12.659 0,-5.107 -2.484,-9.5953 -6.998,-12.6363 -4.108,-2.7695 -9.177,-2.7578 -14.077,-2.748 0,0 -9.458,0.0019 -11.4215,0.0019 0,2.1805 0,28.1766 0,30.3574 1.9255,0 9.5755,0 9.5755,0"
       style="fill:#1e74ac;fill-opacity:1;fill-rule:nonzero;stroke:none;stroke-width:0.1"
       id="path915"
       inkscape:connector-curvature="0" /><path
       d="m 155.149,121.771 h -6.114 V 42.5039 h 7.339 v 79.2671 h -1.225"
       style="fill:#1e74ac;fill-opacity:1;fill-rule:nonzero;stroke:none;stroke-width:0.1"
       id="path917"
       inkscape:connector-curvature="0" /><path
       d="m 171.039,102.106 c 0,-6.3087 2.87,-11.2861 8.527,-14.7939 0.072,-0.0414 13.929,-7.3769 13.929,-7.3769 0.032,-0.0168 1.422,-0.6946 1.422,-0.6946 6.287,-3.0511 13.412,-6.5093 13.412,-13.8113 0,-9.1664 -8.117,-16.9109 -17.725,-16.9109 -10.061,0 -15.02,7.1164 -17.406,13.0863 l -0.475,1.1883 -6.477,-2.9297 0.385,-1.0645 c 3.852,-10.6797 12.96,-17.3136 23.768,-17.3136 13.697,0 25.269,10.7785 25.269,23.5363 0,7.1113 -2.966,12.2961 -9.334,16.3168 l -0.041,0.0273 -14.716,7.6645 c -0.04,0.0199 -0.631,0.3 -0.631,0.3 -5.891,2.7926 -12.567,5.9582 -12.567,12.9799 0,7.541 5.817,13.447 13.242,13.447 6.194,0 10.954,-2.78 14.554,-8.496 l 0.741,-1.177 5.322,4.384 -0.493,0.891 c -3.846,6.944 -11.625,11.43 -19.818,11.43 -12.102,0 -20.888,-8.698 -20.888,-20.683"
       style="fill:#1e74ac;fill-opacity:1;fill-rule:nonzero;stroke:none;stroke-width:0.1"
       id="path919"
       inkscape:connector-curvature="0" /><path
       d="m 58.6563,95.9297 0.1996,-0.1383 0.2285,-0.1113 0.2636,-0.059 0.5032,-0.0277 0.3679,-0.0563 0.4586,-0.1465 0.1887,-0.0906 0.2094,-0.1066 0.0863,-0.0465 0.209,-0.125 0.2168,-0.1434 -0.0152,-0.0301 -0.1555,0.0426 -0.0754,0.0395 -0.1383,0.0711 -0.0879,0.0414 -0.2957,0.1211 -0.4691,0.1293 -0.5934,0.0484 v -0.0102 l 0.1391,-0.0988 0.3512,-0.1402 0.5718,-0.2086 0.1528,-0.0617 0.2312,-0.1039 0.1707,-0.0754 0.2863,-0.1508 0.1477,-0.0856 0.1176,-0.0765 0.1965,-0.1582 0.0781,-0.0719 0.0168,-0.0859 -0.0078,-0.0051 -0.2899,0.0785 -0.1468,0.0645 -0.1793,0.0839 -0.2684,0.1176 -0.0676,0.0352 -0.2847,0.123 -0.0524,0.0266 -0.2508,0.1019 -0.1886,0.0719 -0.325,0.0953 -0.3071,0.0309 -0.048,-0.0254 0.0219,-0.0957 0.064,-0.0805 0.3059,-0.3238 0.5726,-0.5152 0.193,-0.1516 0.284,-0.2316 0.1133,-0.0801 0.189,-0.1453 0.0567,-0.0371 0.2074,-0.1446 -0.0059,-0.0105 -0.1863,0.0168 -0.3055,0.0777 -0.1027,0.0441 -0.3016,0.1575 -0.1882,0.1207 -0.4172,0.3457 -0.6282,0.6086 -0.1593,0.1258 -0.1899,0.0847 -0.109,0.0039 0.0239,-0.0898 0.0445,-0.0821 0.1984,-0.3808 0.2317,-0.375 0.2707,-0.366 0.2074,-0.2145 0.2301,-0.2152 0.2832,-0.1965 -0.0512,-0.0453 -0.0617,-0.0098 -0.1395,0.0332 -0.1207,0.0582 -0.1367,0.0996 -0.3351,0.3075 -0.4989,0.5859 -0.1507,0.1969 -0.0672,0.0797 -0.2387,0.4382 -0.1563,0.2086 -0.2601,0.3082 -0.3047,0.2922 0.0059,0.0141 0.0902,0.0558 0.1602,0.1637 0.1195,0.2344 0.0379,0.0785 0.0594,0.1676"
       style="fill:#231f20;fill-opacity:1;fill-rule:evenodd;stroke:none;stroke-width:0.1"
       id="path921"
       inkscape:connector-curvature="0" /><path
       d="m 57.984,95.3422 0.0055,0.0125 -0.0055,0.0043 -0.0981,0.0703 -0.2086,0.1473 -0.0605,0.0304 -0.3293,0.1805 -0.0848,0.0457 -0.339,0.141 -0.0434,0.0235 -0.2719,0.1093 -0.0597,0.0293 -0.2461,0.1231 -0.1383,0.0777 -0.1418,0.0992 -0.0094,0.1024 0.0274,0.1113 0.1238,0.3258 0.2121,0.2562 0.1242,0.0903 0.043,0.0316 0.0281,-0.0144 0.1399,-0.0934 0.2718,-0.2063 0.0996,-0.0675 0.37,-0.2832 0.0793,-0.0508 0.2386,-0.1711 0.1547,-0.1082 0.2578,-0.175 0.2907,-0.1527 -0.0223,-0.1981 -0.1211,-0.25 -0.1754,-0.1848 -0.0996,-0.0605 -0.0117,0.0043"
       style="fill:#231f20;fill-opacity:1;fill-rule:evenodd;stroke:none;stroke-width:0.1"
       id="path923"
       inkscape:connector-curvature="0" /><path
       d="m 55.7004,96.5469 -0.207,0.0476 -0.2864,0.0848 -0.223,0.0691 0.0316,0.2653 0.1078,0.2926 0.1582,0.2781 0.1942,0.232 0.1453,0.1348 0.0789,0.0515 0.1773,-0.0894 0.3086,-0.3004 0.0496,-0.0555 0.0258,-0.0644 -0.0675,-0.0606 -0.1708,-0.1789 -0.1351,-0.2062 -0.0973,-0.2266 -0.0453,-0.1117 -0.0449,-0.1621"
       style="fill:#231f20;fill-opacity:1;fill-rule:evenodd;stroke:none;stroke-width:0.1"
       id="path925"
       inkscape:connector-curvature="0" /><path
       d="m 54.7238,96.8293 -0.2011,0.0473 -0.2946,0.0511 -0.2265,0.0328 0.0023,0.0071 0.0215,0.1332 0.05,0.2277 0.1262,0.3668 0.1902,0.359 0.2344,0.3187 0.2453,0.2407 0.207,0.139 0.1219,0.0418 0.1133,-0.0148 0.0746,-0.1199 0.1375,-0.2989 0.0656,-0.1562 -0.2125,-0.1633 -0.1844,-0.1922 -0.1648,-0.2535 -0.1074,-0.2184 -0.0828,-0.2214 -0.1157,-0.3266"
       style="fill:#231f20;fill-opacity:1;fill-rule:evenodd;stroke:none;stroke-width:0.1"
       id="path927"
       inkscape:connector-curvature="0" /><path
       d="M 55.1969,99.0629 55.1723,99.0914 55.1129,99.082 54.9648,99.0406 54.7414,98.9156 54.5285,98.7445 54.2871,98.4527 54.2129,98.3332 54.0781,98.0984 54.023,97.9965 53.9242,97.7773 53.8879,97.6957 53.8,97.4582 53.7133,97.1461 53.693,96.9965 l -0.1879,-0.0063 -0.3629,0.0668 -0.2047,0.0563 0.0125,0.1078 0.0531,0.2996 0.127,0.4594 0.0992,0.2617 0.0492,0.1094 0.0692,0.1301 0.0421,0.0761 0.1653,0.2633 0.0359,0.057 0.1508,0.1871 0.2461,0.2391 0.2617,0.1918 0.2133,0.1215 0.2211,0.0894 0.0848,0.0286 h 0.0898 l 0.0957,-0.1672 0.1648,-0.3328 0.0778,-0.1723"
       style="fill:#231f20;fill-opacity:1;fill-rule:evenodd;stroke:none;stroke-width:0.1"
       id="path929"
       inkscape:connector-curvature="0" /><path
       d="m 47.2805,99.5652 0.1797,0.3067 0.1996,0.2631 0.0683,0.091 0.2032,0.206 0.0375,0.047 0.2679,0.225 0.2848,0.187 0.2965,0.148 0.1785,0.062 0.1949,0.062 0.1223,0.024 0.0129,0.064 0.0464,0.16 0.0411,0.089 0.13,0.219 0.0493,0.073 0.2316,0.244 0.1512,0.124 0.0679,0.051 -0.0539,0.08 -0.0234,0.095 -0.027,0.099 -0.0316,0.339 0.0227,0.68 0.1222,0.712 0.1168,0.37 0.0645,0.157 0.0293,0.055 0.1203,0.235 0.0402,0.072 0.0821,0.129 0.3121,0.346 0.0898,0.085 0.0375,0.005 0.0555,0.022 0.0644,-0.006 -0.0191,-0.112 -0.1098,-0.196 -0.1922,-0.405 -0.0636,-0.146 -0.1559,-0.524 -0.0621,-0.68 0.0254,-0.322 0.0695,-0.31 0.1395,-0.373 0.0269,-0.063 c 0,0 0.0465,-0.049 0.0465,-0.044 l 0.0277,0.124 0.0672,0.247 0.0969,0.275 0.0352,0.06 0.1589,0.283 0.0528,0.08 0.2125,0.228 0.3242,0.22 0.1832,0.074 0.2094,0.058 0.2156,0.042 0.5066,0.003 0.5645,-0.088 0.5887,-0.17 0.6129,-0.246 0.6308,-0.311 0.2875,-0.158 0.1219,-0.067 0.0902,-0.055 0.0746,-0.039 0.134,-0.086 0.0598,-0.033 0.2703,-0.179 0.0422,-0.023 0.2355,-0.161 0.2438,-0.173 0.4426,-0.364 0.2726,-0.252 0.3402,-0.382 0.279,-0.397 0.125,-0.263 0.0152,-0.058 -0.0129,-0.067 -0.0688,0.023 -0.0546,0.054 -0.1457,0.173 -0.511,0.518 -0.1687,0.14 -0.452,0.361 -0.1894,0.13 -0.4059,0.276 -0.1699,0.106 -0.2699,0.155 -0.2399,0.132 -0.2797,0.143 -0.1164,0.056 -0.1504,0.077 -0.3886,0.164 -0.343,0.13 -0.2414,0.077 -0.5133,0.12 -0.3809,0.056 -0.3671,0.007 -0.4711,-0.08 -0.2133,-0.099 -0.2074,-0.153 -0.1317,-0.146 -0.1015,-0.194 -0.0215,-0.038 -0.0606,-0.199 -0.0441,-0.346 -8e-4,-0.197 0.1422,-0.018 0.207,-0.052 0.4938,-0.167 0.1668,-0.072 0.1093,-0.045 0.0653,-0.034 0.2949,-0.148 0.6859,-0.441 0.5086,-0.494 0.3055,-0.447 0.0449,-0.081 0.0227,-0.0804 -0.1301,-0.048 -0.073,-0.0203 -0.2059,-0.1059 -0.3711,-0.2492 -0.2734,-0.2778 -0.1875,-0.248 -0.05,-0.0832 -0.0942,-0.1547 -0.0836,-0.1574 -0.0531,-0.1102 -0.0352,-0.0625 -0.1292,-0.3222 -0.1833,-0.57 -0.0722,-0.289 -0.0371,-0.1551 -0.1961,0.0488 -0.3711,0.1239 -0.1809,0.0753 -0.1898,0.0965 -0.232,0.1266 -0.1192,0.0699 -0.2465,0.1762 -0.1105,0.0785 -0.243,0.2102 -0.2652,0.266 -0.441,0.5566 -0.3907,0.6277 -0.0945,0.1551 -0.0457,0.0539 -0.0926,-0.0187 -0.0844,-0.05 -0.2734,-0.2481 -0.0656,-0.1 -0.093,-0.1757 -0.0539,-0.1168 -0.0992,-0.42 -0.0078,-0.3871 0.0469,-0.3734 0.0972,-0.3629 0.141,-0.3395 0.2414,-0.4152 0.2911,-0.4035 c 0,0 0.4007,-0.4371 0.4058,-0.4422 0.1742,-0.1906 0.3504,-0.3363 0.5043,-0.5434 0.1758,-0.2351 0.4891,-0.4289 0.7254,-0.6035 0.2422,-0.1781 0.5109,-0.3781 0.7559,-0.5629 0.3172,-0.2367 0.5136,-0.4539 0.7871,-0.7371 -0.1508,-0.1156 -0.1836,-0.1312 -0.327,-0.0527 -0.2445,0.1387 -2.0472,1.4719 -2.6308,1.9652 l -0.1469,0.1239 -0.5754,0.5832 -0.4672,0.607 -0.3644,0.6269 -0.1297,0.3286 -0.0899,0.3418 -0.0414,0.3593 0.011,0.3817 0.0753,0.3183 0.1477,0.3321 0.1938,0.3109 0.2175,0.2504 0.2637,0.2391 c 0,0 0.1797,0.135 0.166,0.152 l -0.1426,-0.05 -0.3004,-0.132 -0.3597,-0.22 -0.3403,-0.2907 -0.0851,-0.1 -0.2801,-0.4019 -0.1211,-0.2371 -0.0855,-0.2051 -0.1528,-0.3203 -0.1129,0.073 -0.0378,0.1223 0.0117,0.2426 0.0535,0.255 0.0625,0.1727 0.0836,0.1828 0.0465,0.0949"
       style="fill:#231f20;fill-opacity:1;fill-rule:evenodd;stroke:none;stroke-width:0.1"
       id="path931"
       inkscape:connector-curvature="0" /><path
       d="m 15.6156,92.3191 v 0.0196 h -0.0383 v 0.0187 H 15.425 v 0.0199 h -0.0848 l -0.2117,0.0571 -0.2805,-0.077 -0.7687,-0.0062 -1.2109,-0.0524 -0.5,-0.0308 H 12.2406 L 11.966,92.2469 h -0.1281 l -0.3133,-0.0117 -0.1789,-0.0047 -0.3719,-0.0141 -0.3644,-0.0059 -0.5313,-0.0328 -0.24372,-0.0851 0.15351,-0.1008 0.67231,-0.0121 0.2179,-0.0082 0.1532,-0.007 0.1214,-0.0051 0.5114,-0.0461 0.1996,-0.0129 0.3332,-0.0387 0.8375,-0.1344 0.4101,-0.089 0.7891,-0.3992 0.2863,-0.1485 0.0977,-0.0433 v -0.0395 h 0.0168 v -0.0187 h 0.0406 v -0.0207 h 0.0164 v -0.0188 h 0.0406 v -0.0195 h 0.0379 v -0.0203 h 0.0207 v -0.0172 h 0.0504 l 0.0703,-0.3668 0.0125,-0.1852 0.0446,-0.3211 0.0062,-0.1554 0.0719,-0.6731 0.057,-0.2519 0.0832,-0.1614 0.0516,-0.2379 0.0195,-0.321 0.0391,-0.3516 0.025,-0.3102 0.0183,-0.2246 0.0715,-0.5441 0.0504,-0.2903 0.057,-0.0832 0.2821,-0.3484 0.1609,-0.232 0.0649,-0.1473 0.1578,-0.2945 0.2726,-0.6406 0.3098,-0.6059 0.225,-0.3023 0.1797,-0.1872 0.3902,-0.5199 0.416,-0.616 0.334,-0.4121 0.5625,-0.3602 0.1285,-0.0566 0.4285,-0.2254 0.5571,-0.3414 0.5691,-0.218 0.2387,-0.0711 0.3121,-0.1015 0.2117,-0.0703 v -0.02 h 0.0371 v -0.0203 h 0.0781 V 80.607 h 0.0774 v -0.0215 h 0.0961 v -0.0203 h 0.0953 v -0.0164 h 0.0383 v -0.0211 h 0.0578 v -0.0179 l 0.2098,-0.0649 0.3406,-0.0898 0.0832,-0.0067 0.6656,-0.1402 0.3516,-0.0586 0.4254,-0.057 0.6191,-0.0656 0.168,-0.0063 0.5629,-0.0394 h 0.1918 l 0.2746,-0.0051 h 0.3789 l 0.5183,0.0051 0.275,0.0136 0.2055,0.0145 0.5684,0.0113 0.0519,-0.2066 V 79.3395 L 27.5441,78.566 27.5074,77.8949 v -0.1558 l 0.0231,-0.2953 0.0773,-0.443 0.1602,-0.643 0.025,-0.1726 0.1539,-0.6493 0.1871,-0.8355 0.0117,-0.3024 V 73.8203 L 28.1262,73.0754 28.1078,72.6766 V 72.523 l -0.0066,-0.3164 0.0066,-0.4429 0.0977,-0.3332 0.0429,-0.1864 v -0.0523 l 0.1844,-0.2309 0.1668,0.0329 0.3977,0.2757 0.2582,0.2192 0.2086,0.2695 0.0187,0.0902 0.0652,0.0633 0.0438,0.1485 0.0582,0.0632 0.0977,0.2188 0.0707,0.1301 0.0121,0.0832 0.1211,0.3402 0.0328,0.1273 0.0758,0.1215 0.0199,0.0723 0.0719,0.084 0.0113,0.0644 0.0375,0.0496 0.0574,0.1426 0.0586,0.0906 0.0449,0.1153 0.0758,0.089 0.057,0.1606 0.0528,0.1039 -0.0082,0.1914 -0.0446,0.4375 v 0.4297 l 0.0528,0.3793 -0.0082,0.1035 0.0332,0.0762 -0.0055,0.1035 0.0309,0.0898 v 0.2 l 0.0191,0.3731 0.0074,0.0578 -0.0074,0.248 0.0074,0.2079 v 0.2062 l -0.0117,0.0555 0.0117,0.0988 -0.0265,0.0555 -0.0075,0.0972 -0.1277,0.2145 -0.1523,0.1894 -0.2629,0.6239 -0.0766,0.3996 -0.166,1.0211 -0.0074,0.1914 -0.0375,0.3672 h 0.1476 l 0.3508,0.0976 0.8078,0.2246 0.9344,0.2895 0.3457,0.0832 0.0633,0.0562 0.1613,0.0196 0.1852,0.0832 0.4222,0.123 0.1535,0.025 0.8395,0.1434 0.3527,0.05 0.4539,0.1097 0.1098,0.0137 0.3883,0.0942 0.9949,0.3609 0.4215,0.1277 0.4156,0.1676 0.3594,0.1281 0.4281,0.1344 0.7625,0.2383 0.3965,0.1101 0.2754,0.0633 1.3582,0.3278 0.4805,0.1039 0.4355,0.0308 h 0.2039 l 0.1031,0.0657 0.3309,0.1589 0.1625,0.0836 -0.007,0.0266 h 0.1336 v 0.0512 h 0.2058 v 0.039 l 0.1785,0.0949 0.0782,0.0204 0.1847,0.1668 0.2117,0.3476 0.268,0.1223 0.3043,0.1855 0.2324,0.2567 0.0723,0.1988 -0.0117,0.1816 -0.1875,0.3004 -0.0758,0.0809 -0.1156,0.041 -0.127,0.0141 -0.2441,0.025 v 0.2179 l 0.0137,0.0145 -0.1465,0.2887 -0.3895,0.3199 -0.5035,0.207 -1.0246,0.2113 -0.4856,0.1746 -0.2753,0.1344 -0.3645,0.0637 -0.5961,0.1195 -0.5637,0.1508 -0.2433,0.1465 -0.3782,0.2008 -0.8074,0.391 -0.0871,0.0391 -0.2437,0.141 -0.127,0.0894 -0.1234,0.0324 -0.4672,0.1082 v -0.0164 l -0.0524,0.0313 -0.1449,-0.0313 -0.1484,-0.0074 -0.2317,-0.0375 -0.2101,-0.0469 -0.8059,-0.2437 -0.4168,-0.0582 -0.1472,-0.0051 -0.725,-0.1617 -0.5297,-0.1414 -0.1926,-0.0246 -0.3578,-0.0266 -0.5254,0.0645 -0.2309,0.0058 h -0.3648 l -0.4555,-0.0133 -0.307,-0.0179 h -0.134 l -0.4047,-0.0074 -0.134,0.0074 -0.4531,0.0457 -0.1293,0.0047 H 29.1008 L 28.748,88.5594 28.5234,88.5531 28.0238,88.5094 27.8051,88.4957 27.6078,88.475 26.8977,88.4004 26.0461,88.3285 25.8223,88.3152 25.482,88.3043 h -0.1215 l -0.3453,0.0109 -0.2871,0.0133 -0.2246,0.0199 -0.507,0.0637 -0.1977,0.0195 -0.6215,0.0961 -0.1781,0.0196 -0.4933,0.0761 -0.1036,0.009 -0.3699,0.0508 -0.1226,0.0043 -0.3645,0.0391 h -0.0961 l -0.3023,0.0199 h -0.1328 l -0.1547,0.0265 v 0.018 H 20.841 v 0.0203 h -0.0387 v 0.0188 h -0.039 v 0.0195 h -0.0199 v 0.0192 h -0.0383 v 0.0199 h -0.018 v 0.0176 h -0.0394 v 0.0203 h -0.0188 v 0.0187 H 20.591 v 0.0215 h -0.0195 v 0.0168 h -0.0184 v 0.0191 h -0.0398 v 0.0196 h -0.0387 v 0.0187 l -0.057,0.0195 v 0.0192 h -0.0371 v 0.0199 h -0.02 v 0.0192 h -0.0386 v 0.0191 h -0.0395 v 0.0187 h -0.0367 v 0.0192 H 20.207 v 0.0199 h -0.0394 v 0.0207 h -0.0371 v 0.0195 h -0.0383 v 0.0164 h -0.0383 v 0.0211 h -0.0203 v 0.018 h -0.0391 v 0.0199 h -0.0238 l -0.1289,0.0977 -0.2691,0.2043 -0.4536,0.3207 -0.5007,0.2781 -0.3848,0.1402 v -0.0062 l 0.0394,-0.1117 0.0391,-0.3742 v -0.3934 h -0.0648 v 0.0184 h -0.0582 v 0.0203 h -0.0188 v 0.0168 h -0.0394 v 0.0199 l -0.1586,0.0844 -0.2887,0.1605 -0.3324,0.1727 -0.4992,0.3351 -0.25,0.225 -0.1532,0.1696 -0.1031,0.2031 h 0.0195 v 0.0172 h 0.0383 v 0.0203 h 0.018 v 0.0195 l 0.084,0.0524 0.2879,0.1546 0.1734,0.0774 0.6207,0.2894 1.2168,0.436 0.3457,0.1035 0.1531,0.0355 0.4856,0.2325 -0.0481,0.1035 -0.2504,0.0508 -0.525,0.0515 H 18.6691 L 18.484,92.5309 17.7406,92.473 17.0551,92.4023 16.8766,92.3965 16.5234,92.3512 h -0.0898 l -0.2539,-0.0125 -0.193,-0.0078 -0.3711,-0.0118"
       style="fill:#231f20;fill-opacity:1;fill-rule:evenodd;stroke:none;stroke-width:0.1"
       id="path933"
       inkscape:connector-curvature="0" /><path
       d="m 39.4801,63.3934 0.0601,-0.2579 0.0649,-0.0722 0.0746,-0.157 0.1226,-0.1086 0.2872,-0.2754 0.3265,-0.2274 0.186,-0.1476 0.0812,-0.0125 0.0508,-0.05 0.8285,-0.3789 0.425,-0.1121 2.1156,-0.6473 0.4067,-0.0688 0.3402,-0.0847 0.5598,-0.0782 0.4129,-0.2226 -0.0118,-0.0215 -0.1429,-0.2598 -0.0496,-0.2148 -0.1286,-0.3117 -0.0105,-0.1992 -0.0777,-0.2508 -0.0231,-0.2578 -0.0937,-0.418 0.014,-0.1309 -0.0277,-0.2121 -0.4121,-1.5554 -0.0871,-0.1524 -0.161,-0.4363 -0.0531,-0.05 -0.0816,-0.2285 -0.2539,-0.5137 -0.0618,-0.1934 -0.1527,-0.2929 -0.0711,-0.2059 -0.1512,-0.2133 -0.1785,-0.3816 -0.0898,-0.1223 -0.041,-0.1465 -0.177,-0.2937 -0.0617,-0.1836 -0.0699,-0.0965 0.0047,-0.0539 -0.1223,-0.2676 -0.0242,-0.1015 -0.1352,-0.2442 -0.0269,-0.259 0.0699,-0.2566 0.1598,-0.116 0.5609,0.1297 0.4418,0.2586 0.1965,0.1847 0.3015,0.1992 0.2079,0.2079 0.3293,0.255 0.0917,0.1192 0.2618,0.2375 0.6082,0.5582 0.4242,0.5519 0.0746,0.0614 0.3176,0.341 0.1113,0.1574 0.1027,0.0996 0.2704,0.5113 0.1117,0.1457 0.064,0.1622 0.1582,0.248 0.0434,0.123 0.0719,0.086 0.0414,0.1582 0.107,0.1648 0.1004,0.2657 0.1641,0.3039 0.1867,0.5164 0.1414,0.2023 0.0742,0.175 0.1117,0.107 0.2731,0.336 0.3554,0.2597 0.2141,0.0247 0.177,-0.0754 0.2812,-0.2664 0.0715,-0.0262 0.1441,-0.1516 0.0965,-0.0676 0.0531,-0.0722 0.3938,-0.2926 0.0805,-0.091 0.3086,-0.2207 0.0816,-0.1153 0.1726,-0.1242 0.261,-0.3183 0.1656,-0.1473 0.0828,-0.1574 0.1977,-0.2547 0.0711,-0.1375 0.3195,-0.4328 0.0879,-0.2 0.1199,-0.1528 0.0492,-0.1492 0.1211,-0.1648 0.0684,-0.2367 0.1012,-0.2008 0.0218,-0.1059 0.2286,-0.4527 0.0687,-0.2141 0.0957,-0.1347 0.0313,-0.1075 0.0472,-0.0175 0.1406,-0.1946 0.0911,-0.0644 0.1394,-0.002 0.1016,0.0012 0.241,0.2461 0.0125,0.0879 0.1703,0.4492 0.0723,0.6582 0.009,0.4656 0.0347,0.8969 -0.0367,0.118 -0.0723,0.7121 -0.0351,0.273 -0.1012,0.1875 0.0012,0.0899 -0.1676,0.414 -0.0773,0.3235 -0.1625,0.3488 -0.0223,0.118 -0.1086,0.1445 -0.0977,0.1992 -0.2714,0.3828 -0.086,0.2 -0.2234,0.2864 -0.0703,0.125 -0.0989,0.0554 -0.0789,0.1137 -0.1304,0.198 -0.1602,0.1602 0.1508,0.1133 0.2101,0.0664 0.5469,0.2539 0.1555,0.0391 0.1953,0.1082 0.0898,0.0089 0.3122,0.0879 0.5757,0.2032 0.3133,0.0734 0.3574,0.2137 0.1629,0.0711 0.0946,-0.0028 0.3472,0.1707 1.1778,0.3411 0.2566,0.0593 0.1844,0.0188 0.2344,0.0664 0.2695,0.0293 0.4848,0.1953 0.1988,0.1316 0.1215,0.1938 -0.0012,0.2449 -0.0731,0.05 -0.0433,0.0719 -0.0949,0.0351 -0.4121,0.2325 -0.4,0.0941 -0.2961,0.1012 -0.3243,0.0343 -0.4875,0.0704 -0.1347,-0.0235 -0.3696,0.0176 -0.7753,-0.0137 -0.2297,-0.0011 -0.4192,-0.0524 -0.2371,-0.0148 -0.3945,-0.084 -0.1469,-0.0031 -0.7555,-0.1114 -0.2742,-0.0273 -0.389,-0.1063 -0.3282,-0.0343 -0.4586,-0.0743 -0.2082,0.0305 -0.1507,0.0938 -0.0649,0.1707 -0.0605,0.2777 0.0218,0.2469 0.145,0.4707 0.0855,0.3945 0.1152,0.4426 0.009,0.1336 0.1586,0.5789 -0.0078,0.0773 0.2067,0.5731 0.1289,0.5453 0.1316,0.2547 0.0234,0.1121 0.2661,0.548 0.332,0.4317 0.2332,0.4187 0.1551,0.4934 -0.0094,0.2644 -0.1356,0.1645 -0.2476,0.0055 -0.2652,-0.0575 -1.1887,-0.455 L 51.5355,69.9355 51.2617,69.7977 51.2086,69.793 51.1793,69.7336 51.0785,69.702 50.8297,69.5547 50.6859,69.407 49.891,68.7527 49.6582,68.4746 49.2883,68.0938 48.9848,67.6648 48.9406,67.6387 48.7016,67.282 48.5078,66.8215 48.3273,66.3496 48.302,66.0359 48.2082,65.618 l 0.0168,-0.0516 -0.1184,-0.9746 -0.066,-0.3117 -0.1301,-0.25 -0.0652,-0.0156 -0.0742,-0.077 -0.3078,-0.0125 -0.2727,0.0984 -0.6812,0.1661 -0.7621,0.0742 -0.6711,-0.0461 -0.3617,-0.0488 -0.2262,-0.0333 -0.4266,-0.0664 -0.4324,-0.0546 -0.4816,-0.1149 -0.2028,-0.0195 -0.5629,-0.1008 -0.3976,-0.0215 -0.2774,0.0168 -0.0261,0.032 -0.1149,-0.0128 -0.425,0.0449 -0.0441,-0.0164 -0.0856,0.0379 -0.3246,0.0441 -0.089,-0.0098 -0.1895,0.0575 -0.1707,-0.0165 -0.0605,0.036 -0.1836,0.007 -0.3196,-0.0996 -0.1644,-0.2277 -0.0293,-0.2578"
       style="fill:#231f20;fill-opacity:1;fill-rule:evenodd;stroke:none;stroke-width:0.1"
       id="path935"
       inkscape:connector-curvature="0" /><path
       d="M 40.8676,122.733 C 18.3332,122.733 0,104.507 0,82.1047 0,59.702 18.3332,41.4766 40.8676,41.4766 c 22.5344,0 40.8672,18.2254 40.8672,40.6281 0,22.4023 -18.3328,40.6283 -40.8672,40.6283 z m 24.775,-17.689 c -3.6153,1.015 -9.5629,1.917 -16.4754,2.34 -1.2703,3.612 -2.8082,6.423 -4.5168,8.165 8.2496,-0.914 15.6109,-4.778 20.9922,-10.505 z M 38.3305,115.66 c 0.839,0.062 1.6828,0.104 2.5371,0.104 0.6695,0 1.3332,-0.025 1.9933,-0.063 1.945,-1.288 3.7223,-4.202 5.1688,-8.252 -2.325,0.123 -4.7445,0.192 -7.2121,0.192 -2.5641,0 -5.1231,-0.076 -7.6028,-0.213 1.4329,4.02 3.1911,6.922 5.1157,8.232 z m -1.8008,-0.18 c -1.6836,-1.751 -3.1992,-4.546 -4.4531,-8.119 -6.4055,-0.406 -12.1582,-1.222 -15.884,-2.211 5.2484,5.541 12.3633,9.313 20.3371,10.33 z M 15.1375,103.982 c 3.0883,0.943 8.9234,2.017 16.6492,2.52 -0.691,-2.105 -1.2945,-4.455 -1.7941,-7.0016 -8.3258,0.4754 -14.2094,1.4756 -16.411,2.5286 0.4961,0.669 1.0118,1.323 1.5559,1.953 z M 13.2336,62.6484 c 1.7695,0.9664 7.7215,2.3852 16.4281,3.0996 0.4246,-2.489 0.9453,-4.805 1.5508,-6.9074 -8.0527,0.3996 -13.9965,1.2824 -16.7984,2.2571 -0.4078,0.5058 -0.8024,1.0222 -1.1805,1.5507 z m 2.1941,-2.7488 c 3.6075,-0.9601 9.5696,-1.6047 16.0403,-1.9172 1.232,-4.0039 2.7785,-7.1621 4.5375,-9.1894 -8.1559,1.1691 -15.3762,5.2343 -20.5778,11.1066 z m 53.4196,3.2449 c -1.7461,1.2856 -7.9043,2.6266 -15.8957,3.352 -0.0989,-0.3469 -0.1254,-0.6172 -0.1016,-0.8344 8.7207,-0.7906 14.427,-2.2828 15.5246,-3.1914 -0.2652,-0.3656 -0.5355,-0.7269 -0.8148,-1.0816 -1.8582,-0.8176 -6.2051,-1.6684 -12.5243,-2.2086 0.1086,-0.2793 0.2317,-0.5575 0.3473,-0.8172 4.4992,0.3836 8.5664,0.9687 11.1547,1.7937 -5.3312,-6.1433 -12.8562,-10.3504 -21.3543,-11.4297 1.3184,1.4985 2.5195,3.6274 3.5594,6.2747 -0.261,-0.2579 -0.5481,-0.554 -0.8953,-0.8477 -0.2399,-0.2031 -0.6575,-0.575 -1.1274,-0.9871 -0.9949,-2.0586 -2.0984,-3.6223 -3.2691,-4.6133 -0.8535,-0.0637 -1.7129,-0.1086 -2.5832,-0.1086 -1.0559,0 -2.1008,0.0496 -3.1328,0.1445 -1.934,1.6719 -3.6758,4.9571 -5.0551,9.3391 2.6273,-0.1098 5.318,-0.1652 7.9508,-0.1652 1.1543,0 2.3691,0.0136 3.6148,0.0379 0.0391,0.2406 0.0785,0.5363 0.1184,0.8488 -1.209,-0.0234 -2.4485,-0.0371 -3.7332,-0.0371 -2.9137,0 -5.6614,0.0605 -8.2137,0.168 -0.6293,2.1332 -1.173,4.5054 -1.6176,7.055 3.0481,0.2223 6.4059,0.3567 10.0184,0.3567 2.3554,0 4.589,-0.0621 6.7074,-0.1641 0.1023,0.2711 0.2129,0.5543 0.3219,0.8285 -2.2696,0.1172 -4.625,0.1852 -7.0293,0.1852 -3.4563,0 -6.9051,-0.1375 -10.1578,-0.3778 -0.2129,1.302 -0.3899,2.6594 -0.5485,4.0418 -0.2758,-0.2816 -0.6215,-0.53 -1.0562,-0.7378 0.1367,-1.1606 0.2937,-2.293 0.4687,-3.3926 -7.8539,-0.6481 -14.373,-1.8985 -16.7363,-3.2817 -2.9168,4.2821 -4.87422,9.2594 -5.54766,14.6293 3.52736,-2.0422 11.06526,-3.5019 19.81526,-4.2441 0.0527,0.2918 0.0949,0.5703 0.123,0.8332 -10.1297,0.8543 -17.37419,2.6148 -20.05857,4.4762 -0.09258,0.9992 -0.1457,2.0089 -0.14883,3.0308 1.44883,1.066 4.4008,2.1035 8.5375,2.9625 -0.1426,0.2598 -0.2957,0.5145 -0.4367,0.7774 -3.534,-0.7442 -6.35236,-1.6641 -8.07931,-2.7391 0.18398,6.7957 2.40586,13.0957 6.07851,18.3173 2.6141,-1.336 9.2223,-2.2341 16.7609,-2.67 -0.5336,-2.9004 -0.9242,-6.0504 -1.1675,-9.3578 0.3707,0.0273 0.7402,0.0507 1.1089,0.0742 0.2446,3.2574 0.6325,6.3644 1.1571,9.2242 3.173,-0.1633 6.4797,-0.2461 9.7004,-0.2461 1.6414,0 3.4043,0.027 5.2117,0.0777 -0.0012,0.302 0.0152,0.5836 0.0523,0.8426 -1.6785,-0.0449 -3.4304,-0.0707 -5.264,-0.0707 -3.4321,0 -6.6192,0.0867 -9.543,0.2344 0.5105,2.6105 1.1297,5.0045 1.8348,7.1245 2.464,0.139 5.1015,0.22 7.8953,0.22 2.6492,0 5.1574,-0.073 7.5062,-0.2 0.2117,-0.636 0.4129,-1.304 0.609,-1.988 0.2453,0.43 0.534,0.856 0.7871,1.077 -0.0871,0.283 -0.1715,0.572 -0.2613,0.845 8.2801,-0.52 14.3836,-1.707 17.2672,-2.689 0.4484,-0.527 0.8871,-1.061 1.3031,-1.613 -1.4601,-0.861 -5.7965,-1.796 -12.3812,-2.3914 0.1355,-0.2711 0.28,-0.5515 0.4203,-0.8093 5.6039,0.509 10.4453,1.3387 12.4121,2.5707 3.8426,-5.3528 6.1375,-11.8633 6.2621,-18.8942 -3.2856,2.4043 -11.975,4.0793 -22.0281,4.8321 -0.0969,1.7472 -0.2442,3.4441 -0.4246,5.098 -0.2696,0.0215 -0.5262,0.0609 -0.7051,0.1766 -0.1477,0.0957 -0.2989,0.2183 -0.4539,0.3386 0.207,-1.7882 0.3687,-3.6359 0.4765,-5.5339 -2.6554,0.1789 -5.3961,0.2722 -8.1441,0.3203 0.1598,-0.0883 0.3344,-0.1856 0.5465,-0.3071 0.1574,-0.0902 0.3398,-0.2953 0.5164,-0.5437 2.4855,-0.0563 4.8738,-0.1594 7.1269,-0.3113 0.0782,-1.62 0.1207,-3.2707 0.1207,-4.9465 0,-2.568 -0.0996,-5.0778 -0.2816,-7.5028 -3.3867,-0.2246 -7.0512,-0.35 -10.9414,-0.35 -3.207,0 -6.2496,0.0903 -9.1191,0.2465 -0.0493,-0.2761 -0.0973,-0.5492 -0.1485,-0.8172 3.043,-0.1722 6.1563,-0.2789 9.2676,-0.2789 3.6566,0 7.3379,0.1231 10.8769,0.3575 -0.0835,-0.9942 -0.1894,-1.9625 -0.3011,-2.9227 0.3613,0.2059 0.7386,0.4113 1.1367,0.6387 0.0219,0.0121 0.0363,0.0144 0.0574,0.0258 0.0801,0.7734 0.1656,1.5406 0.2285,2.3367 9.925,0.732 18.5426,2.3629 21.9899,4.7047 -0.6403,-5.561 -2.6563,-10.711 -5.6914,-15.1157 z M 52.6145,74.3988 c 0.1683,2.3883 0.2578,4.8692 0.2578,7.4231 0,1.6515 -0.0422,3.2754 -0.1168,4.8683 11.7703,-0.8828 19.916,-2.9695 21.998,-5.0902 -0.0113,-0.7391 -0.048,-1.4723 -0.1066,-2.1988 -2.2434,-2.0946 -10.3696,-4.1395 -22.0324,-5.0024"
       style="fill:#1e74ac;fill-opacity:1;fill-rule:nonzero;stroke:none;stroke-width:0.1"
       id="path937"
       inkscape:connector-curvature="0" /></g><g
     transform="translate(0,-0.00133743)"
     inkscape:label="text"
     id="layer2"
     inkscape:groupmode="layer"><text
       id="text1005"
       y="128.74004"
       x="7.3840923"
       style="font-weight:500;font-size:24px;line-height:1.25;font-family:Futura;-inkscape-font-specification:'Futura Medium';letter-spacing:1px"
       xml:space="preserve"><tspan
         y="128.74004"
         x="7.3840923"
         id="tspan1003"
         sodipodi:role="line" /></text><text
       id="text1009"
       y="137.08728"
       x="2.8894274"
       style="font-weight:500;font-size:24px;line-height:1.25;font-family:Futura;-inkscape-font-specification:'Futura Medium';letter-spacing:1px;fill:#ff00ff"
       xml:space="preserve"><tspan
         y="137.08728"
         x="2.8894274"
         id="tspan1007"
         sodipodi:role="line" /></text><text
       id="text1013"
       y="126.85926"
       x="5.5825777"
       style="font-weight:500;font-size:24px;line-height:1.25;font-family:Futura;-inkscape-font-specification:'Futura Medium';letter-spacing:1px;fill:#ff00ff"
       xml:space="preserve"><tspan
         y="126.85926"
         x="5.5825777"
         id="tspan1011"
         sodipodi:role="line" /></text><text
       id="text1017"
       y="136.0994"
       x="4.2350588"
       style="font-weight:500;font-size:22.6667px;line-height:1.25;font-family:Futura;-inkscape-font-specification:'Futura Medium';letter-spacing:1px;fill:#000000"
       xml:space="preserve"><tspan
         style="letter-spacing:1.3px;fill:#000000"
         y="136.0994"
         x="4.2350588"
         id="tspan1015"
         sodipodi:role="line">OCEAN BIODIVERSITY</tspan><tspan
         style="letter-spacing:1.3px;fill:#000000"
         id="tspan1019"
         y="164.43277"
         x="4.2350588"
         sodipodi:role="line">INFORMATION SYSTEM</tspan></text></g></svg>
